<svg id="Capa_1" enable-background="new 0 0 512 512" height="512" viewBox="0 0 512 512" width="512" xmlns="http://www.w3.org/2000/svg"><g><path d="m448.657 31.494h-40.212c-4.143 0-7.5 3.358-7.5 7.5s3.357 7.5 7.5 7.5h40.212c26.656 0 48.343 21.844 48.343 48.695v225.903c0 26.851-21.687 48.695-48.343 48.695h-338.968c-5.669 0-11.083 2.708-14.483 7.244l-63.498 84.706c-3.72 4.966-8.834 3.748-10.312 3.254-3.093-1.029-6.396-3.919-6.396-8.941v-193.109c0-4.142-3.357-7.5-7.5-7.5s-7.5 3.358-7.5 7.5v193.108c0 10.708 6.538 19.804 16.657 23.173 2.598.865 5.231 1.285 7.821 1.284 7.44 0 14.506-3.464 19.233-9.776l63.496-84.703c.582-.777 1.51-1.241 2.481-1.241h338.968c34.928 0 63.343-28.573 63.343-63.695v-225.903c.001-35.121-28.414-63.694-63.342-63.694z"/><path d="m7.5 235.935c4.143 0 7.5-3.358 7.5-7.5v-133.247c0-26.851 21.687-48.695 48.343-48.695h313.702c4.143 0 7.5-3.358 7.5-7.5s-3.357-7.5-7.5-7.5h-313.702c-34.928.001-63.343 28.574-63.343 63.695v133.246c0 4.143 3.357 7.501 7.5 7.501z"/></g></svg>